<svg xmlns="http://www.w3.org/2000/svg" viewBox="0 0 214 40">
    <path fill="#FFFFFF" fill-rule="evenodd" d="M100.238 23.71h-6.109l3.055-7.844 3.054 7.844zm2.059 5.285l1.363 3.505h6.721l-10.107-25h-6.077l-10.109 25h6.617l1.366-3.505h10.226zm-28.922 3.507V17.644l-6.561 7.848-6.558-7.848v14.858h-6.571v-25h6.481l6.648 8.596 6.65-8.596h6.481v25h-6.57zm41.184-25v25h6.573V13.308h9.189V7.502h-15.762zm36.736 15.206v9.794h6.572v-25h-6.572v9.33h-9.761v-9.33h-6.571v25h6.571v-9.794h9.761zm47.888 9.794V13.308h-7.678V7.502h21.962v5.806h-7.712v19.194h-6.572zm-18.872-14.248v14.248h6.575v-25h-5.675L170.928 21.6V7.502h-6.574v25h5.497l10.46-14.248zM0 11.958c0-3.186 1.257-6.186 3.543-8.45A12.042 12.042 0 0 1 12.068 0h27.867v6.076H12.068a5.928 5.928 0 0 0-4.19 1.729 5.823 5.823 0 0 0-1.747 4.153l-.035 10.199c-.284 2.709-2.345 4.894-5.011 5.297L0 27.619V11.958zM0 40v-6.077h27.867a5.902 5.902 0 0 0 4.186-1.731 5.787 5.787 0 0 0 1.749-4.15l.005-9.68c0-2.883 2.168-5.383 5.044-5.818l1.084-.163v15.661c0 3.186-1.257 6.185-3.544 8.448A12.027 12.027 0 0 1 27.867 40H0zm23.647-12.381v-7.743l-3.68 4.237-3.681-4.237v7.743H11.41V12.381h4.619l3.938 4.899 3.937-4.899h4.621v15.238h-4.878z"/>
</svg>
